# xmcd CD database file
#
# Track frame offsets:
#	150
#	6754
#	12935
#	23176
#	29029
#	35662
#	42511
#	49410
#	55456
#	61120
#	65933
#	72349
#	79187
#	85641
#	91185
#	97395
#	102976
#	109137
#	115912
#	121366
#	127077
#	133353
#	138719
#	145290
#	150807
#	157463
#	162172
#	167287
#	172614
#	177792
#	184521
#	190235
#	197037
#	202597
#	207303
#	212719
#	219573
#	224974
#	230786
#	236070
#	241552
#	247356
#	252271
#	257878
#	263364
#	268903
#	274059
#	279576
#	285066
#	290529
#	296592
#	304929
#
# Disc length: 4369 seconds
#
# Revision: 0
# Processed by: cddbd v1.5.2PL0 Copyright (c) Steve Scherf et al.
# Submitted via: CDex 1.51
#
DISCID=24110f34
DTITLE=Dudley Evenson - Meditation Moment
DYEAR=2008
DGENRE=New Age
TTITLE0=A New Day
TTITLE1=Breath
TTITLE2=Relaxation
TTITLE3=Perfection
TTITLE4=Healing
TTITLE5=Attraction
TTITLE6=Releasing
TTITLE7=Creativity
TTITLE8=Purpose
TTITLE9=Gratitude
TTITLE10=Love
TTITLE11=Relationships
TTITLE12=Family
TTITLE13=Community
TTITLE14=Inner Peace
TTITLE15=World Peace
TTITLE16=Trust
TTITLE17=Forgiveness
TTITLE18=Service
TTITLE19=Fulfillment
TTITLE20=Joy
TTITLE21=Friendship
TTITLE22=Spirit
TTITLE23=Intention
TTITLE24=Focus
TTITLE25=Compassion
TTITLE26=Support
TTITLE27=Non-Judgement
TTITLE28=Non-Violence
TTITLE29=Miracles
TTITLE30=Kindness
TTITLE31=Patience
TTITLE32=Respect
TTITLE33=Empowerment
TTITLE34=Balance
TTITLE35=Harmony
TTITLE36=Communication
TTITLE37=Giving and Receiving
TTITLE38=Abundance
TTITLE39=Going with the Flow
TTITLE40=Self Worth
TTITLE41=Hope
TTITLE42=Justice
TTITLE43=Integrity
TTITLE44=Natural Order
TTITLE45=Responsibility
TTITLE46=Inner Beauty
TTITLE47=Change
TTITLE48=Guidance
TTITLE49=Bliss
TTITLE50=Stillness
TTITLE51=Sleep
EXTD=YEAR: 2008
EXTT0=
EXTT1=
EXTT2=
EXTT3=
EXTT4=
EXTT5=
EXTT6=
EXTT7=
EXTT8=
EXTT9=
EXTT10=
EXTT11=
EXTT12=
EXTT13=
EXTT14=
EXTT15=
EXTT16=
EXTT17=
EXTT18=
EXTT19=
EXTT20=
EXTT21=
EXTT22=
EXTT23=
EXTT24=
EXTT25=
EXTT26=
EXTT27=
EXTT28=
EXTT29=
EXTT30=
EXTT31=
EXTT32=
EXTT33=
EXTT34=
EXTT35=
EXTT36=
EXTT37=
EXTT38=
EXTT39=
EXTT40=
EXTT41=
EXTT42=
EXTT43=
EXTT44=
EXTT45=
EXTT46=
EXTT47=
EXTT48=
EXTT49=
EXTT50=
EXTT51=
PLAYORDER=
